<svg
    xmlns="http://www.w3.org/2000/svg"
    xmlns:xlink="http://www.w3.org/1999/xlink"
    version="1.1"
    viewBox="0 0 46 64"
>
    <g>
        <path
            style="opacity: 0.159"
            fill=""
            d="M 36.5,-0.5 C 39.5,-0.5 42.5,-0.5 45.5,-0.5C 45.5,-0.166667 45.5,0.166667 45.5,0.5C 43.2537,1.20964 40.9204,1.70964 38.5,2C 29.979,11.6866 21.6457,21.5199 13.5,31.5C 21.6457,41.4801 29.979,51.3134 38.5,61C 40.9204,61.2904 43.2537,61.7904 45.5,62.5C 45.5,62.8333 45.5,63.1667 45.5,63.5C 42.5,63.5 39.5,63.5 36.5,63.5C 27.5229,52.8527 18.5229,42.186 9.5,31.5C 18.5229,20.814 27.5229,10.1473 36.5,-0.5 Z"
        />
    </g>
    <g>
        <path
            style="opacity: 0.088"
            fill=""
            d="M -0.5,32.5 C -0.5,31.8333 -0.5,31.1667 -0.5,30.5C 6.96842,22.1923 14.3018,13.6923 21.5,5C 24.1667,4.33333 26.8333,4.33333 29.5,5C 27.7148,6.16284 25.7148,6.82951 23.5,7C 16.6872,15.3139 9.68719,23.4806 2.5,31.5C 9.68719,39.5194 16.6872,47.6861 23.5,56C 25.7148,56.1705 27.7148,56.8372 29.5,58C 26.8333,58.6667 24.1667,58.6667 21.5,58C 14.3018,49.3077 6.96842,40.8077 -0.5,32.5 Z"
        />
    </g>
</svg>